<?xml version="1.0" encoding="iso-8859-1"?>
<!-- Generator: Adobe Illustrator 19.0.0, SVG Export Plug-In . SVG Version: 6.00 Build 0)  -->
<svg version="1.1" id="Capa_1" xmlns="http://www.w3.org/2000/svg" xmlns:xlink="http://www.w3.org/1999/xlink" x="0px" y="0px"
	 viewBox="0 0 512 512" style="enable-background:new 0 0 512 512;" xml:space="preserve">
<path style="fill:#43C1DA;" d="M512,256c0,36.551-7.659,71.293-21.462,102.745c-21.232,48.421-57.031,89.004-101.836,116.214
	c-22.518,13.678-47.313,23.98-73.686,30.198C296.072,509.638,276.313,512,256,512s-40.082-2.361-59.026-6.844
	c-26.363-6.217-51.158-16.52-73.676-30.198c-50.239-30.511-89.14-77.824-108.91-134.144c-0.104-0.293-0.199-0.585-0.303-0.878
	C4.963,313.647,0,285.403,0,256C0,163.203,49.382,81.93,123.298,37.042c13.72-8.338,28.296-15.423,43.551-21.086
	C194.612,5.632,224.643,0,256,0s61.388,5.632,89.151,15.956c15.255,5.663,29.832,12.748,43.551,21.086
	C462.618,81.93,512,163.203,512,256z"/>
<path style="fill:#34A8C0;" d="M490.538,358.745c-21.232,48.421-57.031,89.004-101.836,116.214
	c-22.518,13.678-47.313,23.98-73.686,30.198C296.072,509.638,276.313,512,256,512s-40.082-2.361-59.026-6.844
	c-26.363-6.217-51.158-16.52-73.676-30.198c-50.239-30.511-89.14-77.824-108.91-134.144c-0.104-0.293-0.199-0.585-0.303-0.878h3.333
	c4.033,0,7.314-3.281,7.314-7.314v-10.449c0-4.044,3.271-7.314,7.314-7.314h6.269c4.033,0,7.314,3.271,7.314,7.314v11.494
	c0,4.086,3.344,7.387,7.45,7.314c3.992-0.084,7.178,3.323,7.178,7.314v12.539c0,4.033,3.271,7.314,7.314,7.314h15.673
	c4.033,0,7.314,3.271,7.314,7.314v15.673c0,4.033,3.271,7.314,7.314,7.314h30.302c4.033,0,7.314-3.281,7.314-7.314v-58.514
	c0-4.044,3.271-7.314,7.314-7.314h8.359c4.033,0,7.314,3.271,7.314,7.314v60.782c0,4.514,3.657,8.182,8.171,8.182h16.018
	c4.514,0,8.171-3.668,8.171-8.182v-51.378c0-4.044,3.281-7.314,7.314-7.314h21.943c4.044,0,7.314,3.271,7.314,7.314v52.245
	c0,4.033,3.281,7.314,7.314,7.314h16.718c4.044,0,7.314-3.281,7.314-7.314v-28.212c0-4.044,3.281-7.314,7.314-7.314h113.361
	c4.044,0,7.314-3.281,7.314-7.314V310.68c0-4.044,3.281-7.314,7.314-7.314h21.943c4.044,0,7.314,3.271,7.314,7.314v73.143
	c0,4.033,3.281,7.314,7.314,7.314h15.673c4.044,0,7.314-3.281,7.314-7.314v-17.763c0-4.044,3.281-7.314,7.314-7.314L490.538,358.745
	L490.538,358.745z"/>
<path style="fill:#E0E2E2;" d="M388.702,15.956v459.003c-22.518,13.678-47.313,23.98-73.686,30.198
	C296.072,509.638,276.313,512,256,512s-40.082-2.361-59.026-6.844c-26.363-6.217-51.158-16.52-73.676-30.198V15.956H388.702z"/>
<rect x="123.298" y="15.956" style="fill:#CCCCCC;" width="265.404" height="49.11"/>
<rect x="100.206" y="10.731" style="fill:#E0E2E2;" width="311.578" height="37.616"/>
<g>
	<rect x="336.457" y="76.56" style="fill:#3B465C;" width="52.245" height="39.706"/>
	<rect x="196.974" y="76.56" style="fill:#3B465C;" width="118.042" height="39.706"/>
	<rect x="123.298" y="76.56" style="fill:#3B465C;" width="52.239" height="39.706"/>
	<rect x="336.457" y="136.119" style="fill:#3B465C;" width="52.245" height="39.706"/>
	<rect x="196.974" y="136.119" style="fill:#3B465C;" width="118.042" height="39.706"/>
	<rect x="123.298" y="136.119" style="fill:#3B465C;" width="52.239" height="39.706"/>
	<rect x="336.457" y="195.678" style="fill:#3B465C;" width="52.245" height="39.706"/>
	<rect x="196.974" y="195.678" style="fill:#3B465C;" width="118.042" height="39.706"/>
	<rect x="123.298" y="195.678" style="fill:#3B465C;" width="52.239" height="39.706"/>
	<rect x="336.457" y="255.237" style="fill:#3B465C;" width="52.245" height="39.706"/>
	<rect x="196.974" y="255.237" style="fill:#3B465C;" width="118.042" height="39.706"/>
	<rect x="123.298" y="255.237" style="fill:#3B465C;" width="52.239" height="39.706"/>
	<rect x="336.457" y="316.228" style="fill:#3B465C;" width="52.245" height="39.706"/>
	<rect x="196.974" y="316.228" style="fill:#3B465C;" width="118.042" height="39.706"/>
	<rect x="123.298" y="316.228" style="fill:#3B465C;" width="52.239" height="39.706"/>
	<rect x="336.457" y="375.787" style="fill:#3B465C;" width="52.245" height="39.706"/>
	<rect x="196.974" y="375.787" style="fill:#3B465C;" width="118.042" height="39.706"/>
	<rect x="123.298" y="375.787" style="fill:#3B465C;" width="52.239" height="39.706"/>
	<rect x="336.457" y="435.346" style="fill:#3B465C;" width="52.245" height="39.706"/>
	<rect x="196.974" y="435.346" style="fill:#3B465C;" width="118.042" height="39.706"/>
	<rect x="123.298" y="435.346" style="fill:#3B465C;" width="52.239" height="39.706"/>
	<path style="fill:#3B465C;" d="M315.016,494.905v10.25C296.072,509.638,276.313,512,256,512s-40.082-2.361-59.026-6.844v-10.25
		H315.016z"/>
</g>
<g>
</g>
<g>
</g>
<g>
</g>
<g>
</g>
<g>
</g>
<g>
</g>
<g>
</g>
<g>
</g>
<g>
</g>
<g>
</g>
<g>
</g>
<g>
</g>
<g>
</g>
<g>
</g>
<g>
</g>
</svg>
